<svg viewBox="0 0 393.16406 393.16406" height="40px" xmlns="http://www.w3.org/2000/svg"

xmlnssvg="http://www.w3.org/2000/svg">

<defs />

<g transform="translate(-65.480451,-53.354375)">

<path fill="#f5c518"

d="M 262.06248,53.354375 A 196.58209,196.58209 0 0 0 65.480451,249.9364 196.58209,196.58209 0 0 0 262.06248,446.51843 196.58209,196.58209 0 0 0 458.64451,249.9364 196.58209,196.58209 0 0 0 262.06248,53.354375 Z M 180.92771,193.29578 c 8.9125,-0.025 18.06406,-3.9e-4 19.41406,0.0996 0.2,1 0.4,2.00156 0.5,3.10156 1,6.7 1.89883,13.39961 2.79883,20.09961 0.7,5.1 1.50117,10.19922 2.20117,15.19922 0.6,4.3 1.2,8.60078 2,12.80078 l 6.59961,-51.30078 h 37.59961 c 0.2,0.8 0.3,110.20078 0,111.30078 -8.1,0.1 -16.4,0.0996 -25,0.0996 v -73.40039 h -0.19922 c -3.3,24.4 -6.60039,48.90039 -9.90039,73.40039 h -18.09961 c -3.5,-24.1 -6.90039,-48.19922 -10.40039,-72.19922 h -0.20117 v 72.19922 h -25.19922 c -0.2,-0.7 -0.29961,-109.29922 -0.0996,-111.19922 0.4,-0.1 9.07383,-0.17617 17.98633,-0.20117 z m -54.98633,0.0996 h 28.79883 v 111.30078 h -28.79883 z m 135.40039,0 c 10.9,0.1 21.79922,0.10117 32.69922,0.20117 5.1,0.1 10.30078,0.40039 15.30078,1.40039 4.6,1 8.79961,2.69922 12.09961,6.19922 3,3.2 4.90039,7.00039 5.40039,11.40039 0.6,5.2 0.69883,10.49883 0.79883,15.79883 0.1,15.4 0.1,30.80078 0,46.30078 0,4.1 -0.29961,8.20078 -0.59961,12.30078 -0.2,2.6 -0.70078,5.1 -1.80078,7.5 -1.8,3.9 -4.89922,6.4 -8.69922,8 -2.8,1.1 -5.69922,1.69844 -8.69922,1.89844 -3.9,0.2 -7.70156,0.40039 -11.60156,0.40039 -11.5,0.1 -22.89844,0 -34.39844,0 h -1.30078 V 193.49695 c 0.3,0 0.60078,-0.10156 0.80078,-0.10156 z m 72.79883,0.10156 h 27.70117 c 0,0.4 0.0996,0.79922 0.0996,1.19922 v 23.59961 1.09961 c 0.1,0 0.0992,0.002 0.19922,0.10156 l 1.09961,-1.10156 c 4.2,-4.3 9.20117,-6.4 15.20117,-6.5 3.7,0 7.19961,0.4 10.59961,2 4.8,2.1 7.59961,5.90039 8.59961,10.90039 0.5,2.5 0.5,5.09961 0.5,7.59961 0.1,9.7 0,19.4 0,29 v 19.60156 c 0,3.7 -0.29883,7.29844 -0.79883,10.89844 -0.7,5 -3.30039,8.70039 -7.40039,11.40039 -4,2.7 -8.40117,3.60117 -13.20117,3.20117 -5.4,-0.5 -9.8,-3.00039 -13.5,-6.90039 -0.3,-0.6 -0.69883,-1.09961 -1.29883,-1.59961 -0.6,2.4 -1.20078,4.59883 -1.80078,6.79883 h -26 z m -44.59961,19 c -0.2,1.5 -0.10039,72.29922 0.0996,73.19922 1.8,0 3.60078,-0.0992 5.30078,-0.69922 1.5,-0.5 2.49883,-1.5 2.79883,-3 0.2,-0.7 0.30039,-1.50117 0.40039,-2.20117 0.5,-3.1 0.5,-6.30039 0.5,-9.40039 v -45.5 c 0,-2.4 -0.0988,-4.79922 -0.29883,-7.19922 -0.2,-2.2 -1.2,-3.9 -3.5,-4.5 -1.7,-0.6 -3.40078,-0.69922 -5.30078,-0.69922 z m 76.86719,15.50586 c -0.54844,-0.0438 -1.14258,0.0184 -1.76758,0.19336 -1,0.3 -1.7,0.90039 -2,1.90039 -0.2,0.7 -0.40039,1.49922 -0.40039,2.19922 -0.1,2.4 -0.29883,4.69961 -0.29883,7.09961 v 39.30078 c 0,1.5 -3.9e-4,2.90039 0.0996,4.40039 0.1,1.6 0.29961,3.09961 0.59961,4.59961 0.2,1.1 0.80039,1.90078 1.90039,2.30078 2.4,1 4.59922,-0.10117 5.19922,-2.70117 0.1,-0.3 0.10156,-0.59883 0.10156,-0.79883 0.1,-2.1 0.39844,-4.20078 0.39844,-6.30078 0.1,-6.9 0.10156,-13.90039 0.10156,-20.90039 v -21.69922 c 0,-2.2 -0.10156,-4.4 -0.60156,-6.5 -0.45,-1.875 -1.68672,-2.9625 -3.33203,-3.09375 z" />

<g transform="translate(-9.7231042,4.8096602)" />

</g>

</svg>
